<svg xmlns="http://www.w3.org/2000/svg" viewBox="0 0 159.67 159.67"><defs><style>.cls-1{fill:#fff;}</style></defs><title>Asset 1</title><g id="Layer_2" data-name="Layer 2"><g id="Layer_1-2" data-name="Layer 1"><path class="cls-1" d="M159.67,79.83A79.84,79.84,0,1,1,79.83,0,79.85,79.85,0,0,1,159.67,79.83ZM73.31,10.54A70,70,0,0,0,26.87,34.35c-4,4.27-5.95,10.54-.48,14.64,4.36,3.27,10.6-.76,13.46-4C46.17,38,55,26.81,72.05,19.21c13.51-6,34.74-4.39,44.16.22A78.57,78.57,0,0,0,73.31,10.54Zm5,17.26a45.89,45.89,0,1,0,58,29.06A45.89,45.89,0,0,0,78.28,27.8Zm4.53,13.65L98.09,56.9l21.39-3.82-10,19.3,10.24,19.17L98.31,88,83.25,103.69,80,82.21,60.42,72.73,79.84,63Z"/></g></g></svg>